<?xml version="1.0" encoding="UTF-8"?>
<svg version="1.1" xmlns="http://www.w3.org/2000/svg" width="512" height="512">
<path d="M0 0 C0.85244293 -0.0065712 1.70488586 -0.0131424 2.5831604 -0.01991272 C5.40822439 -0.03964323 8.2332351 -0.05131049 11.05834961 -0.0612793 C12.02501493 -0.06535482 12.99168026 -0.06943035 13.98763847 -0.07362938 C19.10845603 -0.09449344 24.22924679 -0.10879124 29.35009766 -0.11816406 C34.6235363 -0.12920272 39.89654999 -0.16357229 45.16983891 -0.20333576 C49.23724618 -0.22956855 53.30455347 -0.23786202 57.37203789 -0.24144554 C59.31477145 -0.24629773 61.25750097 -0.25787242 63.20015144 -0.27648354 C76.34897245 -0.39457813 86.85779501 -0.17142013 96.89428711 9.31762695 C104.05891644 16.91309146 105.97584179 23.70134355 105.77319336 34.05200195 C105.7596582 35.37071289 105.7596582 35.37071289 105.74584961 36.71606445 C105.72243912 38.86982906 105.68657346 41.0234521 105.64819336 43.17700195 C107.56926407 43.16367828 107.56926407 43.16367828 109.52914429 43.15008545 C121.62265103 43.06885544 133.71610211 43.00896725 145.80982018 42.96975327 C152.02673118 42.94891493 158.24342122 42.92066543 164.46020508 42.87524414 C170.46432277 42.83165319 176.46822845 42.80783663 182.47249222 42.79749298 C184.75853434 42.79012543 187.0445654 42.77573846 189.33051682 42.75408173 C192.54261736 42.72487228 195.7538516 42.72105336 198.96606445 42.72290039 C200.37085052 42.70132874 200.37085052 42.70132874 201.80401611 42.67932129 C210.6843784 42.73425946 218.55367296 45.34403007 225.11694336 51.47387695 C231.49886003 58.57213121 233.95582545 66.00501319 233.98413086 75.50512695 C233.99078766 76.29417419 233.99744446 77.08322144 234.00430298 77.8961792 C234.01438881 79.56023849 234.01912126 81.22433791 234.01879883 82.88842773 C234.02315681 85.40588824 234.05947504 87.92157147 234.09741211 90.4387207 C234.18164385 102.32070166 232.96070238 111.35500182 224.65991211 120.46606445 C222.46520617 122.33262989 220.41642367 123.24669708 217.77319336 124.36450195 C215.53533286 125.44892092 215.53533286 125.44892092 213.64819336 127.17700195 C212.94883969 129.50913022 212.94883969 129.50913022 212.94238281 132.31758118 C212.88788971 133.49132608 212.83339661 134.66507099 212.7772522 135.87438393 C212.73364449 137.30857217 212.69067856 138.74278001 212.64819336 140.17700195 C212.58225884 141.91162926 212.51515111 143.64621221 212.44711304 145.38075829 C212.20474025 151.83297271 212.01090077 158.28643745 211.81616211 164.74023438 C211.73907857 167.22210988 211.66172968 169.70397715 211.58413696 172.18583679 C211.41816717 177.51282314 211.25399329 182.83986013 211.09146118 188.16695213 C210.85558896 195.89711371 210.61618885 203.62716304 210.37593639 211.35718957 C209.98494746 223.93955476 209.59646553 236.521996 209.2097168 249.10449219 C208.83625081 261.25458465 208.46210332 273.40465565 208.08666992 285.5546875 C208.06360208 286.30124248 208.04053425 287.04779746 208.01676738 287.81697532 C207.76391607 295.99924304 207.51078546 304.18150209 207.25733948 312.36375141 C207.23494054 313.08689711 207.21254161 313.81004282 207.18946391 314.55510202 C207.09980604 317.44957818 207.01014553 320.34405425 206.92045033 323.23852924 C206.65988051 331.64738708 206.40013906 340.05626946 206.14199281 348.46520207 C205.96012749 354.38857272 205.77732303 360.31191416 205.59421921 366.23524666 C205.52010972 368.63832411 205.44633294 371.04141185 205.37294388 373.44451141 C205.17453376 379.93885538 204.96818407 386.43285893 204.75262833 392.92665648 C204.64225229 396.36190671 204.5435242 399.79740335 204.44442749 403.23299599 C204.37044582 405.5527901 204.29604653 407.87257094 204.22119141 410.19233704 C204.1934731 411.2476006 204.1657548 412.30286417 204.13719654 413.39010543 C203.52223294 431.36547243 197.9888824 445.25605232 185.02319336 457.86450195 C174.33776694 467.16749116 161.68855072 470.49797922 147.83903503 470.43769836 C146.89242785 470.44152391 145.94582067 470.44534946 144.97052842 470.44929093 C141.82030118 470.45955315 138.67025851 470.45564169 135.52001953 470.45166016 C133.25247531 470.4560104 130.98493255 470.4611946 128.71739197 470.46714783 C122.57267044 470.48051602 116.4280105 470.48111886 110.28327727 470.47858453 C105.14677828 470.47751324 100.01029167 470.48240227 94.87379533 470.48718995 C82.05911328 470.49891124 69.24447538 470.49806439 56.42979274 470.49163314 C45.32247768 470.48646658 34.21525038 470.49771503 23.10795268 470.51673136 C11.68091174 470.53614388 0.25392844 470.54406883 -11.17313212 470.54060811 C-17.579679 470.53879818 -23.9861455 470.54140243 -30.39267921 470.55532265 C-36.41985207 470.56792898 -42.44684974 470.56593022 -48.47402 470.55291176 C-50.67980382 470.55055247 -52.88560008 470.5532573 -55.09136963 470.56153488 C-74.7141054 470.6298347 -90.24270877 468.67891752 -105.06665039 454.58325195 C-115.77017655 443.31253039 -120.19392543 430.25504221 -120.67965698 414.88197327 C-120.70289266 414.1802073 -120.72612834 413.47844132 -120.75006813 412.75540972 C-120.82655623 410.41695749 -120.89752866 408.07837158 -120.96850586 405.73974609 C-121.022621 404.05042695 -121.07707721 402.3611187 -121.13184643 400.67182064 C-121.28012434 396.06813315 -121.42359366 391.46430677 -121.56622052 386.86044121 C-121.71858172 381.96880311 -121.87534674 377.07730603 -122.03160095 372.18579102 C-122.29715188 363.85401076 -122.55990147 355.52214609 -122.82070923 347.19021606 C-123.19144774 335.34689279 -123.56695466 323.5037244 -123.94358408 311.66058719 C-125.06907891 276.25917693 -126.18264309 240.85739184 -127.26807404 205.45472908 C-127.37637855 201.9236238 -127.48498718 198.39252801 -127.59368896 194.86143494 C-127.87294296 185.78297172 -128.15142383 176.70450165 -128.4201231 167.62571907 C-128.52392169 164.13540321 -128.63012121 160.64516327 -128.73690987 157.15493774 C-128.78346433 155.61433314 -128.82892984 154.07369509 -128.87309074 152.53302002 C-129.00080753 148.07937022 -129.16580396 143.62869191 -129.35180664 139.17700195 C-129.38196869 138.01957489 -129.41213074 136.86214783 -129.44320679 135.66964722 C-129.49256378 134.59369293 -129.54192078 133.51773865 -129.59277344 132.40917969 C-129.64306953 131.00731667 -129.64306953 131.00731667 -129.69438171 129.57713318 C-130.59512222 126.28870384 -132.14084399 125.52487096 -135.03930664 123.86450195 C-135.94293945 123.41977539 -136.84657227 122.97504883 -137.77758789 122.5168457 C-143.88887837 119.33600711 -147.09483842 113.689855 -149.51831055 107.42797852 C-151.13840424 101.10894874 -150.93998559 94.65243082 -150.87329102 88.16381836 C-150.85184586 85.68154214 -150.87316794 83.20215905 -150.89868164 80.7199707 C-150.91842148 69.63097854 -149.97066242 60.18368087 -142.05493164 51.70825195 C-134.5982331 45.00406428 -126.97497314 42.86650615 -117.13354492 42.94995117 C-116.2255867 42.94965912 -115.31762848 42.94936707 -114.38215637 42.94906616 C-111.39537846 42.95045417 -108.40885322 42.96599047 -105.42211914 42.98168945 C-103.34561296 42.98542146 -101.26910501 42.98826755 -99.19259644 42.99026489 C-93.73786524 42.99788653 -88.28324122 43.01752244 -82.82855225 43.03967285 C-77.25819346 43.06016293 -71.68781729 43.06927337 -66.11743164 43.0793457 C-55.19550966 43.10076968 -44.27366707 43.13488791 -33.35180664 43.17700195 C-33.36920898 41.94216064 -33.38661133 40.70731934 -33.40454102 39.43505859 C-33.41861594 37.79826188 -33.43226538 36.16146147 -33.44555664 34.5246582 C-33.458125 33.71275024 -33.47069336 32.90084229 -33.48364258 32.06433105 C-33.54440615 22.08138275 -30.50779948 15.43253376 -23.64477539 8.1574707 C-16.63762514 2.10529834 -9.05373286 0.03021476 0 0 Z M-9.35180664 26.17700195 C-12.32076943 31.36957154 -12.32076943 31.36957154 -11.35180664 43.17700195 C19.99819336 43.17700195 51.34819336 43.17700195 83.64819336 43.17700195 C84.85828878 30.42885501 84.85828878 30.42885501 81.33569336 25.36450195 C77.08361664 21.90350928 73.39289067 22.01961773 68.15087891 22 C67.38954651 21.9934288 66.62821411 21.9868576 65.84381104 21.98008728 C63.32417704 21.96037602 60.80460257 21.94869682 58.28491211 21.9387207 C57.42357981 21.93464518 56.56224751 21.93056965 55.67481422 21.92637062 C51.11621974 21.90551958 46.55765528 21.89121344 41.99902344 21.88183594 C37.29463826 21.87077086 32.59072599 21.83636725 27.88650799 21.79666424 C24.2653364 21.77050066 20.64427758 21.76214437 17.02301979 21.75855446 C15.28909929 21.75368817 13.55518385 21.7420729 11.82135582 21.72351646 C9.39175448 21.69912883 6.96337806 21.70008883 4.53369141 21.70703125 C3.82126785 21.69422119 3.1088443 21.68141113 2.37483215 21.66821289 C-2.64801402 21.72037581 -5.52979993 22.95255422 -9.35180664 26.17700195 Z " fill="#E9EEEF" transform="translate(214.351806640625,20.822998046875)"/>
<path d="M0 0 C0.85244293 -0.0065712 1.70488586 -0.0131424 2.5831604 -0.01991272 C5.40822439 -0.03964323 8.2332351 -0.05131049 11.05834961 -0.0612793 C12.02501493 -0.06535482 12.99168026 -0.06943035 13.98763847 -0.07362938 C19.10845603 -0.09449344 24.22924679 -0.10879124 29.35009766 -0.11816406 C34.6235363 -0.12920272 39.89654999 -0.16357229 45.16983891 -0.20333576 C49.23724618 -0.22956855 53.30455347 -0.23786202 57.37203789 -0.24144554 C59.31477145 -0.24629773 61.25750097 -0.25787242 63.20015144 -0.27648354 C76.34897245 -0.39457813 86.85779501 -0.17142013 96.89428711 9.31762695 C104.05891644 16.91309146 105.97584179 23.70134355 105.77319336 34.05200195 C105.7596582 35.37071289 105.7596582 35.37071289 105.74584961 36.71606445 C105.72243912 38.86982906 105.68657346 41.0234521 105.64819336 43.17700195 C107.56926407 43.16367828 107.56926407 43.16367828 109.52914429 43.15008545 C121.62265103 43.06885544 133.71610211 43.00896725 145.80982018 42.96975327 C152.02673118 42.94891493 158.24342122 42.92066543 164.46020508 42.87524414 C170.46432277 42.83165319 176.46822845 42.80783663 182.47249222 42.79749298 C184.75853434 42.79012543 187.0445654 42.77573846 189.33051682 42.75408173 C192.54261736 42.72487228 195.7538516 42.72105336 198.96606445 42.72290039 C200.37085052 42.70132874 200.37085052 42.70132874 201.80401611 42.67932129 C210.6843784 42.73425946 218.55367296 45.34403007 225.11694336 51.47387695 C231.49886003 58.57213121 233.95582545 66.00501319 233.98413086 75.50512695 C233.99078766 76.29417419 233.99744446 77.08322144 234.00430298 77.8961792 C234.01438881 79.56023849 234.01912126 81.22433791 234.01879883 82.88842773 C234.02315681 85.40588824 234.05947504 87.92157147 234.09741211 90.4387207 C234.18164385 102.32070166 232.96070238 111.35500182 224.65991211 120.46606445 C222.46520617 122.33262989 220.41642367 123.24669708 217.77319336 124.36450195 C215.53533286 125.44892092 215.53533286 125.44892092 213.64819336 127.17700195 C212.94883969 129.50913022 212.94883969 129.50913022 212.94238281 132.31758118 C212.88788971 133.49132608 212.83339661 134.66507099 212.7772522 135.87438393 C212.73364449 137.30857217 212.69067856 138.74278001 212.64819336 140.17700195 C212.58225884 141.91162926 212.51515111 143.64621221 212.44711304 145.38075829 C212.20474025 151.83297271 212.01090077 158.28643745 211.81616211 164.74023438 C211.73907857 167.22210988 211.66172968 169.70397715 211.58413696 172.18583679 C211.41816717 177.51282314 211.25399329 182.83986013 211.09146118 188.16695213 C210.85558896 195.89711371 210.61618885 203.62716304 210.37593639 211.35718957 C209.98494746 223.93955476 209.59646553 236.521996 209.2097168 249.10449219 C208.83625081 261.25458465 208.46210332 273.40465565 208.08666992 285.5546875 C208.06360208 286.30124248 208.04053425 287.04779746 208.01676738 287.81697532 C207.76391607 295.99924304 207.51078546 304.18150209 207.25733948 312.36375141 C207.23494054 313.08689711 207.21254161 313.81004282 207.18946391 314.55510202 C207.09980604 317.44957818 207.01014553 320.34405425 206.92045033 323.23852924 C206.65988051 331.64738708 206.40013906 340.05626946 206.14199281 348.46520207 C205.96012749 354.38857272 205.77732303 360.31191416 205.59421921 366.23524666 C205.52010972 368.63832411 205.44633294 371.04141185 205.37294388 373.44451141 C205.17453376 379.93885538 204.96818407 386.43285893 204.75262833 392.92665648 C204.64225229 396.36190671 204.5435242 399.79740335 204.44442749 403.23299599 C204.37044582 405.5527901 204.29604653 407.87257094 204.22119141 410.19233704 C204.1934731 411.2476006 204.1657548 412.30286417 204.13719654 413.39010543 C203.52223294 431.36547243 197.9888824 445.25605232 185.02319336 457.86450195 C174.33776694 467.16749116 161.68855072 470.49797922 147.83903503 470.43769836 C146.89242785 470.44152391 145.94582067 470.44534946 144.97052842 470.44929093 C141.82030118 470.45955315 138.67025851 470.45564169 135.52001953 470.45166016 C133.25247531 470.4560104 130.98493255 470.4611946 128.71739197 470.46714783 C122.57267044 470.48051602 116.4280105 470.48111886 110.28327727 470.47858453 C105.14677828 470.47751324 100.01029167 470.48240227 94.87379533 470.48718995 C82.05911328 470.49891124 69.24447538 470.49806439 56.42979274 470.49163314 C45.32247768 470.48646658 34.21525038 470.49771503 23.10795268 470.51673136 C11.68091174 470.53614388 0.25392844 470.54406883 -11.17313212 470.54060811 C-17.579679 470.53879818 -23.9861455 470.54140243 -30.39267921 470.55532265 C-36.41985207 470.56792898 -42.44684974 470.56593022 -48.47402 470.55291176 C-50.67980382 470.55055247 -52.88560008 470.5532573 -55.09136963 470.56153488 C-74.7141054 470.6298347 -90.24270877 468.67891752 -105.06665039 454.58325195 C-115.77017655 443.31253039 -120.19392543 430.25504221 -120.67965698 414.88197327 C-120.70289266 414.1802073 -120.72612834 413.47844132 -120.75006813 412.75540972 C-120.82655623 410.41695749 -120.89752866 408.07837158 -120.96850586 405.73974609 C-121.022621 404.05042695 -121.07707721 402.3611187 -121.13184643 400.67182064 C-121.28012434 396.06813315 -121.42359366 391.46430677 -121.56622052 386.86044121 C-121.71858172 381.96880311 -121.87534674 377.07730603 -122.03160095 372.18579102 C-122.29715188 363.85401076 -122.55990147 355.52214609 -122.82070923 347.19021606 C-123.19144774 335.34689279 -123.56695466 323.5037244 -123.94358408 311.66058719 C-125.06907891 276.25917693 -126.18264309 240.85739184 -127.26807404 205.45472908 C-127.37637855 201.9236238 -127.48498718 198.39252801 -127.59368896 194.86143494 C-127.87294296 185.78297172 -128.15142383 176.70450165 -128.4201231 167.62571907 C-128.52392169 164.13540321 -128.63012121 160.64516327 -128.73690987 157.15493774 C-128.78346433 155.61433314 -128.82892984 154.07369509 -128.87309074 152.53302002 C-129.00080753 148.07937022 -129.16580396 143.62869191 -129.35180664 139.17700195 C-129.38196869 138.01957489 -129.41213074 136.86214783 -129.44320679 135.66964722 C-129.49256378 134.59369293 -129.54192078 133.51773865 -129.59277344 132.40917969 C-129.64306953 131.00731667 -129.64306953 131.00731667 -129.69438171 129.57713318 C-130.59512222 126.28870384 -132.14084399 125.52487096 -135.03930664 123.86450195 C-135.94293945 123.41977539 -136.84657227 122.97504883 -137.77758789 122.5168457 C-143.88887837 119.33600711 -147.09483842 113.689855 -149.51831055 107.42797852 C-151.13840424 101.10894874 -150.93998559 94.65243082 -150.87329102 88.16381836 C-150.85184586 85.68154214 -150.87316794 83.20215905 -150.89868164 80.7199707 C-150.91842148 69.63097854 -149.97066242 60.18368087 -142.05493164 51.70825195 C-134.5982331 45.00406428 -126.97497314 42.86650615 -117.13354492 42.94995117 C-116.2255867 42.94965912 -115.31762848 42.94936707 -114.38215637 42.94906616 C-111.39537846 42.95045417 -108.40885322 42.96599047 -105.42211914 42.98168945 C-103.34561296 42.98542146 -101.26910501 42.98826755 -99.19259644 42.99026489 C-93.73786524 42.99788653 -88.28324122 43.01752244 -82.82855225 43.03967285 C-77.25819346 43.06016293 -71.68781729 43.06927337 -66.11743164 43.0793457 C-55.19550966 43.10076968 -44.27366707 43.13488791 -33.35180664 43.17700195 C-33.36920898 41.94216064 -33.38661133 40.70731934 -33.40454102 39.43505859 C-33.41861594 37.79826188 -33.43226538 36.16146147 -33.44555664 34.5246582 C-33.458125 33.71275024 -33.47069336 32.90084229 -33.48364258 32.06433105 C-33.54440615 22.08138275 -30.50779948 15.43253376 -23.64477539 8.1574707 C-16.63762514 2.10529834 -9.05373286 0.03021476 0 0 Z M-9.35180664 26.17700195 C-12.32076943 31.36957154 -12.32076943 31.36957154 -11.35180664 43.17700195 C19.99819336 43.17700195 51.34819336 43.17700195 83.64819336 43.17700195 C84.85828878 30.42885501 84.85828878 30.42885501 81.33569336 25.36450195 C77.08361664 21.90350928 73.39289067 22.01961773 68.15087891 22 C67.38954651 21.9934288 66.62821411 21.9868576 65.84381104 21.98008728 C63.32417704 21.96037602 60.80460257 21.94869682 58.28491211 21.9387207 C57.42357981 21.93464518 56.56224751 21.93056965 55.67481422 21.92637062 C51.11621974 21.90551958 46.55765528 21.89121344 41.99902344 21.88183594 C37.29463826 21.87077086 32.59072599 21.83636725 27.88650799 21.79666424 C24.2653364 21.77050066 20.64427758 21.76214437 17.02301979 21.75855446 C15.28909929 21.75368817 13.55518385 21.7420729 11.82135582 21.72351646 C9.39175448 21.69912883 6.96337806 21.70008883 4.53369141 21.70703125 C3.82126785 21.69422119 3.1088443 21.68141113 2.37483215 21.66821289 C-2.64801402 21.72037581 -5.52979993 22.95255422 -9.35180664 26.17700195 Z M-107.35180664 128.17700195 C-106.48638943 175.10116834 -106.48638943 175.10116834 -105.19689941 222.01130676 C-105.12466499 224.29110449 -105.05245627 226.57090302 -104.98027039 228.85070229 C-104.94382856 229.99707358 -104.90738674 231.14344487 -104.86984062 232.32455468 C-104.67720202 238.40479092 -104.48824585 244.48514198 -104.29870605 250.56547546 C-103.9817152 260.71706622 -103.6620434 270.8685696 -103.34057617 281.02001953 C-102.97067573 292.70181734 -102.60495962 304.38374062 -102.24142122 316.06573802 C-101.88749121 327.43656141 -101.53089875 338.80729976 -101.17301941 350.1779995 C-101.02230958 354.96738395 -100.87246484 359.75679426 -100.7233429 364.54622841 C-100.54820192 370.16691893 -100.37069612 375.78753014 -100.19143105 381.40809059 C-100.12654375 383.45375578 -100.06242588 385.49944556 -99.99918175 387.5451622 C-99.70863459 396.92845528 -99.39423884 406.31021836 -98.90319824 415.68547058 C-98.85560498 416.70829603 -98.85560498 416.70829603 -98.80705023 417.75178462 C-98.21850813 428.08453787 -93.99287514 435.34716555 -86.35180664 442.17700195 C-75.88428306 450.00160996 -64.35040625 449.02864545 -51.88305664 448.95336914 C-49.61506136 448.96150973 -47.34707402 448.97219863 -45.07910156 448.98522949 C-38.94677109 449.01248014 -32.81504926 449.00201963 -26.68270874 448.98295498 C-20.25012634 448.96771179 -13.81759432 448.98186684 -7.38500977 448.99127197 C4.10603675 449.00286984 15.59677344 448.98428204 27.08777142 448.95371595 C37.48565266 448.92691285 47.88313186 448.93157014 58.28100586 448.95922852 C70.38460197 448.9914095 82.48788292 449.00325178 94.59152985 448.98555493 C100.98803858 448.97622461 107.38427099 448.97488801 113.78076172 448.99477386 C119.79588233 449.01216953 125.81024744 448.99996834 131.82528687 448.96540833 C134.02622222 448.95750844 136.22722169 448.9596955 138.4281311 448.97298431 C151.40137455 449.04406375 161.92014746 449.0845816 172.08557129 439.99839401 C179.02331619 433.03115076 181.67590939 425.819784 182.18725586 416.10668945 C182.22552994 415.38033295 182.26380402 414.65397644 182.30323792 413.90560913 C182.8683485 402.55982158 183.18152345 391.2017874 183.52376556 379.84762573 C183.58705216 377.75711737 183.65132585 375.66664142 183.71588135 373.57617188 C184.20733438 357.64979287 184.67019152 341.7228391 185.08178711 325.79418945 C185.1083863 324.76626722 185.1083863 324.76626722 185.13552284 323.71757889 C185.28407621 317.97256474 185.43223858 312.22754025 185.57941055 306.48249054 C186.19599671 282.43028187 186.90901764 258.38147021 187.66381836 234.33325195 C187.69769992 233.25312364 187.69769992 233.25312364 187.73226595 232.15117455 C188.19126983 217.52141714 188.6536987 202.89176991 189.12225676 188.26231527 C189.30071163 182.68962316 189.4781082 177.11689796 189.65480661 171.54414988 C189.79783649 167.03714448 189.94340957 162.5302252 190.0894165 158.02331543 C190.16396153 155.67741211 190.23840953 153.3315057 190.31274414 150.9855957 C190.36414205 149.42606548 190.36414205 149.42606548 190.41657829 147.8350296 C190.46272113 146.35966358 190.46272113 146.35966358 190.50979614 144.85449219 C190.53669588 144.01812729 190.56359562 143.18176239 190.5913105 142.3200531 C190.67661741 137.60643647 190.64819336 132.89139047 190.64819336 128.17700195 C92.30819336 128.17700195 -6.03180664 128.17700195 -107.35180664 128.17700195 Z " fill="#000000" transform="translate(214.351806640625,20.822998046875)"/>
<path d="M0 0 C1.13835861 -0.00782324 2.27671722 -0.01564648 3.44957155 -0.02370679 C5.31842346 -0.01366855 5.31842346 -0.01366855 7.22502995 -0.00342751 C8.56563306 -0.00688458 9.90623334 -0.01164948 11.24682766 -0.01760924 C14.92953606 -0.03014235 18.61201149 -0.02393843 22.29472077 -0.01465058 C26.26685269 -0.00786979 30.23894423 -0.01833654 34.21106815 -0.02659035 C41.99227688 -0.03994062 49.77339887 -0.03704408 57.55461102 -0.02835242 C63.87834212 -0.02158089 70.2020489 -0.02065686 76.52578259 -0.02392387 C77.4253652 -0.02438357 78.32494782 -0.02484327 79.25179051 -0.0253169 C81.07921346 -0.02627607 82.90663641 -0.02724871 84.73405934 -0.02823468 C101.87620093 -0.03679249 119.01829442 -0.02694856 136.16042811 -0.01083358 C150.87128161 0.00256768 165.58206409 0.00024386 180.2929163 -0.01358986 C197.37161795 -0.0296427 214.45027742 -0.03596607 231.52898556 -0.02675307 C233.3500411 -0.02579741 235.17109666 -0.0248543 236.99215221 -0.02392387 C238.33617715 -0.02322963 238.33617715 -0.02322963 239.70735411 -0.02252137 C246.02346181 -0.01993042 252.33954277 -0.02430478 258.65564632 -0.03136253 C266.35300337 -0.03977454 274.05026863 -0.0375038 281.74761515 -0.0215203 C285.67543642 -0.01363319 289.60310464 -0.0105534 293.5309248 -0.02046776 C297.1265182 -0.02940627 300.72181665 -0.02449593 304.3173833 -0.0085351 C306.23440104 -0.00359585 308.15143925 -0.01339148 310.06843561 -0.02370679 C320.59667701 0.048482 320.59667701 0.048482 325.32587528 3.37752342 C329.72641077 8.85711742 328.80234532 15.11571987 328.76337528 21.81502342 C328.78335575 23.02996483 328.80333622 24.24490623 328.82392216 25.49666405 C328.81781518 36.64189782 328.81781518 36.64189782 324.32587528 41.37752342 C320.94338775 43.63251511 319.80960195 43.62916934 315.8482008 43.63479233 C314.7027574 43.64124122 313.557314 43.64769011 312.37716019 43.65433443 C311.11307827 43.65123722 309.84899636 43.64814002 308.54660892 43.64494896 C307.19464611 43.64868367 305.84268546 43.65328447 304.49072826 43.6586796 C300.76741852 43.67094724 297.04419838 43.67064473 293.32087302 43.66829085 C289.30850851 43.66788363 285.2961731 43.67891273 281.28382206 43.68840599 C273.41981263 43.70503752 265.55583318 43.7105165 257.69180764 43.71163075 C251.30128005 43.71258019 244.91076238 43.7166853 238.52023792 43.723032 C220.41257634 43.7406502 202.30493848 43.74986995 184.19726826 43.74837105 C183.22054354 43.74829114 182.24381882 43.74821122 181.23749638 43.74812889 C180.25958279 43.74804713 179.2816692 43.74796537 178.27412187 43.74788113 C162.42172673 43.74706804 146.56942657 43.76620996 130.71705891 43.79440562 C114.4504045 43.82311048 98.18379644 43.83694725 81.91711605 43.83521807 C72.78040075 43.83455334 63.64378501 43.84008177 54.50709248 43.86157417 C46.72840111 43.87975446 38.94985443 43.88415935 31.17115106 43.87055533 C27.20088705 43.86400967 23.23090088 43.8639656 19.26066303 43.88126183 C15.62735337 43.8969277 11.99454332 43.89419617 8.36124633 43.87669356 C6.42150853 43.87214603 4.48175563 43.8873318 2.54207718 43.90317285 C1.39141829 43.89397526 0.24075939 43.88477767 -0.94476795 43.87530136 C-2.43405994 43.87595347 -2.43405994 43.87595347 -3.95343864 43.87661874 C-8.04673533 43.12572534 -10.62382097 40.89361577 -12.96782589 37.51009178 C-14.60193985 32.57611824 -14.00007648 27.08128591 -13.98662472 21.94002342 C-14.01079464 20.09827538 -14.01079464 20.09827538 -14.03545284 18.2193203 C-14.03609737 17.03531639 -14.03674191 15.85131248 -14.03740597 14.63142967 C-14.0418774 13.01216576 -14.0418774 13.01216576 -14.04643917 11.36018944 C-13.6141794 7.89729266 -12.81448618 6.12399461 -10.67412472 3.37752342 C-7.00702892 0.74576138 -4.48836194 0.00222588 0 0 Z " fill="#8DA3A3" transform="translate(98.6741247177124,84.62247657775879)"/>
<path d="M0 0 C3.52787301 1.95657197 5.70285021 4.10855063 7 8 C7.10210318 10.60847545 7.14780916 13.19051075 7.14717102 15.79927063 C7.15084771 16.60206032 7.1545244 17.40485002 7.1583125 18.23196667 C7.1693554 20.93109944 7.17319419 23.63019372 7.17700195 26.3293457 C7.18326607 28.26091637 7.18991282 30.19248582 7.19691467 32.12405396 C7.21432736 37.37823964 7.22487687 42.63241623 7.2331202 47.88662362 C7.2382691 51.16803601 7.24434483 54.44944556 7.25063133 57.73085594 C7.26968295 67.99417301 7.28391495 78.25748288 7.2922433 88.52081424 C7.3020209 100.37482465 7.32835424 112.22864858 7.36874419 124.08259326 C7.39888105 133.24105976 7.41370981 142.39947273 7.41702431 151.55798787 C7.41937728 157.02998224 7.42837005 162.50177738 7.45348549 167.97371864 C7.47672908 173.12095969 7.48101436 178.26786981 7.47072411 183.41514969 C7.47022776 185.30417289 7.47657732 187.19321218 7.49028015 189.08218575 C7.50794573 191.66178136 7.50091965 194.24018241 7.48774719 196.81977844 C7.49871644 197.56677185 7.50968568 198.31376526 7.52098733 199.08339483 C7.45811163 204.18565326 6.23255931 207.08298783 3 211 C-0.6921187 213.46141247 -3.71354805 213.68650207 -8 213 C-11.55140494 210.83827525 -13.54794289 208.86973137 -15 205 C-15.19587722 202.31285282 -15.28275332 199.7294136 -15.27415466 197.04251099 C-15.27939134 196.23478331 -15.28462802 195.42705564 -15.29002339 194.59485137 C-15.30503992 191.88496167 -15.3057289 189.17526051 -15.30639648 186.46533203 C-15.31401681 184.52375977 -15.32244409 182.58219053 -15.33161926 180.640625 C-15.35358253 175.36376198 -15.36236553 170.08695691 -15.36744571 164.81005335 C-15.37108685 161.51405682 -15.37732562 158.21807553 -15.3844471 154.92208481 C-15.4089471 143.42575156 -15.42199487 131.92946348 -15.42553711 120.43310547 C-15.4291737 109.71301824 -15.45907666 98.99321709 -15.50094169 88.27321732 C-15.53561612 79.07225979 -15.55108505 69.8713972 -15.55178314 60.67037475 C-15.55257687 55.17376757 -15.56135976 49.67745176 -15.58978081 44.18091202 C-15.61591281 39.01142806 -15.61819377 33.8424781 -15.60212517 28.67295837 C-15.60030685 26.7758709 -15.60703578 24.87875306 -15.62294388 22.98173141 C-15.6433445 20.39100525 -15.63288914 17.80215803 -15.61473083 15.2114563 C-15.6279308 14.46125406 -15.64113077 13.71105183 -15.65473074 12.93811619 C-15.56298124 7.20457757 -13.93066756 4.87399209 -10 1 C-6.76918255 -0.61540873 -3.49240902 -0.5896275 0 0 Z " fill="#070707" transform="translate(260,203)"/>
<path d="M0 0 C3.5426931 0.02820616 4.63090304 0.2380644 7.75 2.1875 C12.44609959 7.17710582 10.94212411 14.37678724 10.93359375 20.85546875 C10.9335327 21.65554037 10.93347164 22.45561199 10.93340874 23.27992821 C10.90051255 52.26613067 9.86225858 81.25175424 9.02501428 110.22332752 C8.83408645 116.84222864 8.64900787 123.46128304 8.46548563 130.08039314 C8.2426147 138.11665863 8.01572253 146.15280705 7.78765178 154.18892646 C7.72339759 156.46205484 7.6598687 158.73520248 7.59651375 161.00835609 C7.3418671 170.11074067 7.06094121 179.21183144 6.75 188.3125 C6.71994244 189.27755337 6.68988487 190.24260674 6.65891647 191.23690414 C6.57993238 193.65519628 6.48288846 196.07178739 6.37670898 198.48901367 C6.32747787 199.72165451 6.27824677 200.95429535 6.2275238 202.22428894 C5.53688097 206.69076961 3.97943541 209.34888846 0.4375 212.125 C-2.78075692 213.5470205 -4.76222468 213.74847191 -8.25 213.3125 C-12.03723363 211.59103017 -13.78436385 210.18238307 -15.25 206.3125 C-15.50779724 203.27201843 -15.50779724 203.27201843 -15.51342773 199.5612793 C-15.51726943 198.5110065 -15.51726943 198.5110065 -15.52118874 197.43951607 C-15.5248806 195.02591331 -15.51132897 192.61277302 -15.49609375 190.19921875 C-15.49353514 189.33448126 -15.49097652 188.46974377 -15.48834038 187.57880211 C-15.39090449 157.904123 -14.37773316 128.23102855 -13.52501523 98.57058322 C-13.33361895 91.8995788 -13.14871637 85.22840664 -12.96548563 78.55717355 C-12.7644865 71.24159593 -12.55997852 63.92612086 -12.35360527 56.61069298 C-12.26693436 53.53813951 -12.18129547 50.46556003 -12.09651375 47.39295387 C-11.99678526 43.78661276 -11.89390137 40.1803741 -11.78871346 36.57418823 C-11.73324983 34.64979057 -11.68068803 32.72530993 -11.62826538 30.80082703 C-11.44835241 24.74036916 -11.2088275 18.68300971 -10.87620544 12.62895203 C-10.81673453 11.49658458 -10.75726362 10.36421713 -10.69599056 9.19753551 C-10.24133499 6.25644755 -9.8214261 5.071166 -7.75 3 C-6.5125 2.1646875 -6.5125 2.1646875 -5.25 1.3125 C-3.69014791 -0.24735209 -2.16093902 0.06797656 0 0 Z " fill="#040404" transform="translate(330.25,202.6875)"/>
<path d="M0 0 C2.88525523 2.2440874 4.44236776 4.72127716 5.00610352 8.38064575 C5.18209932 11.03822999 5.26080776 13.68468641 5.3125 16.34765625 C5.36055283 17.92714554 5.36055283 17.92714554 5.40957642 19.5385437 C5.51589702 23.15044706 5.60157061 26.76255777 5.6875 30.375 C5.75967027 32.98709495 5.83312256 35.59915473 5.90771484 38.21118164 C6.05579107 43.44832527 6.19709227 48.6856019 6.33268547 53.92308331 C6.65093461 66.2047253 7.00982674 78.48505748 7.37168121 90.76548195 C7.65445663 100.39195665 7.93113247 110.01860925 8.20837402 119.6452446 C8.31157432 123.21795381 8.41573058 126.79063419 8.52001953 130.36331177 C9.80165024 174.45277497 9.80165024 174.45277497 9.8984375 193.31640625 C9.91000885 194.51450424 9.9215802 195.71260223 9.9335022 196.94700623 C9.93272675 198.01709427 9.93195129 199.08718231 9.93115234 200.18969727 C9.93287445 201.09422134 9.93459656 201.99874542 9.93637085 202.93067932 C9.66387871 205.53856776 9.1072594 207.11629504 7.6875 209.3125 C3.64124707 211.88738823 0.46641083 213.10898514 -4.3125 212.3125 C-7.73540543 210.23003306 -10.01711236 208.19866291 -11.3125 204.3125 C-12.81807144 188.87915132 -12.789784 173.25619135 -13.22161031 157.76241326 C-13.28585507 155.46327246 -13.35085483 153.1641542 -13.41610527 150.86504173 C-13.64570088 142.77476527 -13.87260775 134.68441867 -14.09692383 126.59399414 C-14.28021379 119.98548087 -14.46748323 113.37709472 -14.65844727 106.76879883 C-16.48338922 43.53869458 -16.48338922 43.53869458 -16.66070366 22.44472313 C-16.67568936 20.8723411 -16.69704571 19.30000376 -16.72551155 17.727808 C-16.76065265 15.66407777 -16.76695735 13.59991362 -16.77124023 11.53588867 C-16.7798558 10.43669601 -16.78847137 9.33750336 -16.79734802 8.20500183 C-16.19144255 4.5902966 -14.83131593 2.92408595 -12.3125 0.3125 C-8.56856575 -1.55946713 -3.94426265 -1.17261863 0 0 Z " fill="#020202" transform="translate(187.3125,203.6875)"/>
</svg>
